<svg id="Capa_1" data-name="Capa 1" xmlns="http://www.w3.org/2000/svg" viewBox="0 0 507.58 158.47"><defs><style>.cls-1{fill:#fff;}</style></defs><title>logo-volcan-blanco</title><path class="cls-1" d="M1,96.88l.85,5.37h48l7.16-.66S75,94.59,85.1,81.77c0,0,19.76-1.24,23.58-3a36.18,36.18,0,0,0,3.58-3.58V69.74a18.39,18.39,0,0,1,4.52-3.58s6.79-2.69,7.16-2.73c0,0,4.05-1.23,12.77-.9,0,0,2.36-2.64,2.59-2.73l.24-.09h1.7v1l5.37,0s-.57-1.37,5.47-1c0,0,5.91-2.87,20.86-18.83,0,0,17.47-19,19-20h1.95S220,48.28,220.75,52.68c0,0-.25,3.46,1.13,3.52h5.78a31.49,31.49,0,0,0,11.25-6.41s-7.48,8.23-11.5,11.75L210,75.24a5.74,5.74,0,0,0-.88,3.46,8,8,0,0,0,3.52.12s10.93-5.78,14.45-8.1l3.52-2.32s18-10.43,22.8-15c0,0,4.71-5.72,9-11.69l4.27-6s7.23-9.86,8.29-11.25c0,0,1.88,1.13,3.77-3.71,0,0,4-7,5.4-9A54.61,54.61,0,0,1,288,7.38s4.27-.82,6.22.75c0,0,6.28,4.46,10.74,4.71a5,5,0,0,0,0-2.64S301,1.57,291.56,0c-.38-.06-6.16,0-6.16,0s-5.09,1.63-6.66,6.54c0,0-6.35,4.84-6.35,5.21,0,0-10.56-.75-13.51,1.76,0,0-7.29,5.47-10.11,9.3,0,0-5.09,4.84-5.22,4.4,0,0-7,3.27-8,6.28,0,0-3.2.5-3.83-.88,0,0-9.11-3.33-10.05-4.4,0,0-19.42-12.13-22.43-12.13l-9.61.06a22.5,22.5,0,0,0-10.37,7.48s-8.11,3.08-11.69,6.28c0,0-7.35-.88-12.57,2.89,0,0-12.44,7-13.7,10.68,0,0-7.54,4-8,4.52,0,0-12.06,3.46-15.58,8.23,0,0-10.24,9.11-10.81,9.87,0,0-12.25,5.53-13.32,6.28,0,0-8.36-.31-14.83,2.83L71.4,79.71s-5.28-.58-11.5,4.45c0,0-18.1,8.17-19.29,9.11,0,0-7.55-.16-12.39,3.55Z"/><path class="cls-1" d="M47.15,117.46s.38,3,22.49,1.88c0,0,16.34-10.43,33.3-9.8,0,0,8.8-4.77,11.18-11.94,0,0,6.91-17.07,7.92-17.9,0,0,2.51-5.1-5.28-1.58,0,0-3.39,6.28-7,9,0,0-12.57,10.18-20.48,13.32,0,0-12.69,3.64-12.94,4.4,0,0-8.8,6.41-12.44,7.41,0,0-7.54,2.51-9.93,2.76C53.94,115.07,46.07,116.65,47.15,117.46Z"/><path class="cls-1" d="M206.49,100.24s1.38,1.88,8.8-2.51c0,0,50.77-27,46.24-40,0,0-1.63-2.51-19,7.54,0,0-16,13.82-19.23,19.48C223.33,84.79,203,98.36,206.49,100.24Z"/><path class="cls-1" d="M298.73,16.8s7.67,4.15,29.78,31c0,0,.88,4.4,0,5.53a6.52,6.52,0,0,1-4.4-1S309.53,41.18,309.41,39c0,0-3.27-8.67-5.15-10.3C304.26,28.74,295.71,16.8,298.73,16.8Z"/><path class="cls-1" d="M318.45,25.6S332,28.49,360.8,60l.88,5.53S369.6,75,370,75.36c0,0,14.2,1.88,20.61,0,0,0,20.61-8.8,29.78-8.29,0,0,3.77,10.68-16.34,17.22l-.25,17.34S402.4,108,397,105.9c0,0-18.48-9.3-26.89-15.46,0,0-6.91.38-9.92-5.28,0,0-8.8-13.07-9-13.82,0,0-12.44-16.84-15.46-18.72,0,0-20.74-23.88-17.22-26.52"/><path class="cls-1" d="M431.55,68.2s9.93,3,21,14.33c0,0,1.63,5-3.9,3.64,0,0-8.92-6-9.8-6.46C438.84,79.71,430.29,75.36,431.55,68.2Z"/><path class="cls-1" d="M508.58,120s-40.59-21.49-49-32c0,0-4.9-1.26-2.64,2.51,0,0,8.17,8.42,4.27,7.54h-2.39s-20.61-14.33-20.61-14.7-6.79-5.91-5.78.75c0,0,9.8,24.5,44.48,35.94C476.92,120,499,121.48,508.58,120Z"/><path class="cls-1" d="M52.51,127.76H69.14v1.51h-2s13.57,15.58,15.08,17.59c0,0,11.81-14.83,12.82-15.58v-3.52h15.08V129l-2,.25a4,4,0,0,1-.5,4L89.75,152.9a2.64,2.64,0,0,0,1.68,2.84v.9H73.33v-.85a4.86,4.86,0,0,0,.94-1.88S53.4,132.13,52.51,129.49v-1.73"/><path class="cls-1" d="M162.73,127.76s-13.05-.58-25.82,0-18.28,9.69-18.28,9.69V146c3,9.09,16,10.41,16,10.41s1.84.57,22.1,0,20.64-9.71,20.64-9.71v-8.25C175.17,131.19,162.73,127.76,162.73,127.76Zm-14,23.29c-9.84,0-17.81-4.24-17.81-9.48s8-9.48,17.81-9.48,17.81,4.24,17.81,9.48S158.52,151.05,148.68,151.05Z"/><polyline class="cls-1" points="239.82 156.59 192.75 156.59 192.75 154.75 194.77 154.75 194.77 129.54 191.94 129.54 191.94 127.7 208.2 127.7 208.2 129.49 206.36 129.49 206.32 152.16 239.82 152.16 239.82 149.47 242.51 149.47 242.51 158.47 239.87 158.47"/><path class="cls-1" d="M251.7,137.64s3.86-10.65,24.46-10.84h11.64s19.18,2.26,21.72,3.49v2.54L304,138.49h-1.84s-5.14-4.29-14.28-5.42L276.81,133s-12.72,3.86-13.53,6.74v3.58s2.36,5.61,11.31,7.75c0,0,20.55-.4,23.14-1.63,0,0,1.6.19,4.15-3.68l8.53,6V153s-8.25,2.87-11.78,3.68H268.75s-14.8-3.86-17.06-9.75v-9.14"/><path class="cls-1" d="M379.78,154.72,357.47,130.4v-2.7H341.2V131l-20.79,23.75-2.77.06v1.84h19v-1.84h-2s3.4-5.46,4.59-5.4,20.79,0,20.79,0,3.4,3.89,3.71,5.28h-1.7v2h19.79v-2ZM342.08,145l6.5-8.36,6.5,8.36Z"/><polygon class="cls-1" points="392.72 127.58 409.12 127.58 409.12 129.77 437.21 144.92 437.21 129.4 436.14 129.4 436.14 127.58 449.65 127.58 449.65 129.4 448.77 129.4 448.77 154.84 451.53 154.84 451.53 156.54 434.75 156.54 406.23 137.63 405.42 137.63 405.42 154.78 408.06 154.78 408.06 156.54 391.84 156.54 391.84 154.66 393.66 154.66 393.66 129.4 392.72 129.4 392.72 127.58"/></svg>