<svg id="Layer_1" data-name="Layer 1" xmlns="http://www.w3.org/2000/svg" viewBox="0 0 231.38 46.88"><defs><style>.cls-1{fill:#f36f22;}.cls-2{fill:#fff;}</style></defs><title>Logo_CerroVerde2</title><path class="cls-1" d="M45.59,25.29c-4.78.45-8,5.87-11.37,10.74L22.7,53.28s-1.14,1.54-2.5,1.45-2.82-2.86-2.82-2.86l-7-11V47.3A9.71,9.71,0,0,0,20,57H47.56a9.7,9.7,0,0,0,9.67-9.67V33.53S50.37,24.83,45.59,25.29Z" transform="translate(-10.35 -10.09)"/><path class="cls-1" d="M19.88,46.09c2.18,0,3.69-1.23,7-6.38l12.47-20s4.09-7.15,5.73-7.19c0,0,1.46-.37,4.69,4.64l7.45,10.12V19.77a9.71,9.71,0,0,0-9.67-9.68H20a9.71,9.71,0,0,0-9.68,9.68v17l4,5.09S17.7,46,19.88,46.09Z" transform="translate(-10.35 -10.09)"/><path class="cls-2" d="M68.6,34.58v-.06a10.76,10.76,0,0,1,11-11,11.11,11.11,0,0,1,8.32,3.31l-2.4,2.77A8.45,8.45,0,0,0,79.54,27c-4.08,0-7,3.35-7,7.51v.06c0,4.16,2.94,7.56,7,7.56,2.61,0,4.28-1.06,6.1-2.76L88,41.75a11,11,0,0,1-8.63,3.77A10.7,10.7,0,0,1,68.6,34.58Z" transform="translate(-10.35 -10.09)"/><path class="cls-2" d="M89.59,37.19v-.06c0-4.59,3.26-8.35,7.84-8.35,5.11,0,7.69,4,7.69,8.62,0,.34,0,.67-.06,1H93.27a4.48,4.48,0,0,0,4.62,4.07,5.8,5.8,0,0,0,4.34-1.92l2.16,1.92a8.13,8.13,0,0,1-6.56,3A8,8,0,0,1,89.59,37.19ZM101.47,36c-.24-2.37-1.64-4.23-4.07-4.23-2.25,0-3.83,1.74-4.16,4.23Z" transform="translate(-10.35 -10.09)"/><path class="cls-2" d="M108.07,29.11h3.68v3.62c1-2.4,2.85-4,5.68-3.92v3.88h-.22c-3.22,0-5.46,2.1-5.46,6.35v6.11h-3.68Z" transform="translate(-10.35 -10.09)"/><path class="cls-2" d="M119.86,29.11h3.67v3.62c1-2.4,2.86-4,5.68-3.92v3.88H129c-3.22,0-5.47,2.1-5.47,6.35v6.11h-3.67Z" transform="translate(-10.35 -10.09)"/><path class="cls-2" d="M130.22,37.22v-.06a8.55,8.55,0,0,1,17.1-.06v.06a8.38,8.38,0,0,1-8.59,8.36A8.3,8.3,0,0,1,130.22,37.22Zm13.43,0v-.06A5,5,0,0,0,138.73,32a4.82,4.82,0,0,0-4.84,5.1v.06a5,5,0,0,0,4.9,5.17A4.84,4.84,0,0,0,143.65,37.22Z" transform="translate(-10.35 -10.09)"/><path class="cls-2" d="M157.26,23.88h4.13l6.41,16.35,6.38-16.35h4L169.38,45.3H166.1Z" transform="translate(-10.35 -10.09)"/><path class="cls-2" d="M177.68,37.19v-.06c0-4.59,3.25-8.35,7.84-8.35,5.1,0,7.69,4,7.69,8.62,0,.34,0,.67-.07,1H181.36A4.47,4.47,0,0,0,186,42.51a5.82,5.82,0,0,0,4.35-1.92l2.16,1.92a8.14,8.14,0,0,1-6.57,3A8,8,0,0,1,177.68,37.19ZM189.56,36c-.24-2.37-1.64-4.23-4.07-4.23-2.25,0-3.83,1.74-4.16,4.23Z" transform="translate(-10.35 -10.09)"/><path class="cls-2" d="M196.15,29.11h3.68v3.62c1-2.4,2.86-4,5.68-3.92v3.88h-.21c-3.22,0-5.47,2.1-5.47,6.35v6.11h-3.68Z" transform="translate(-10.35 -10.09)"/><path class="cls-2" d="M206.67,37.16V37.1c0-5.32,3.61-8.32,7.44-8.32a6.63,6.63,0,0,1,5.47,2.82V23h3.68V45.15h-3.68V42.48a6.42,6.42,0,0,1-5.47,3C210.34,45.48,206.67,42.48,206.67,37.16Zm13,0V37.1A4.81,4.81,0,0,0,215,32c-2.52,0-4.61,1.94-4.61,5.13v.06c0,3.1,2.12,5.14,4.61,5.14A4.84,4.84,0,0,0,219.64,37.16Z" transform="translate(-10.35 -10.09)"/><path class="cls-2" d="M226.21,37.19v-.06c0-4.59,3.25-8.35,7.83-8.35,5.11,0,7.69,4,7.69,8.62,0,.34,0,.67-.06,1H229.88a4.48,4.48,0,0,0,4.62,4.07,5.8,5.8,0,0,0,4.34-1.92L241,42.51a8.12,8.12,0,0,1-6.56,3A8,8,0,0,1,226.21,37.19ZM238.08,36c-.24-2.37-1.64-4.23-4.07-4.23-2.24,0-3.82,1.74-4.16,4.23Z" transform="translate(-10.35 -10.09)"/></svg>