<svg width="130" height="50" viewBox="0 0 130 50" fill="none" xmlns="http://www.w3.org/2000/svg">
<g clip-path="url(#clip0_3008_24)">
<path d="M45.1919 33.9801V16.0414C45.1919 13.5187 43.8551 11.1901 41.6559 9.91803L26.132 0.948647C23.9543 -0.301893 21.2592 -0.301893 19.0599 0.948647L3.53601 9.91803C1.33678 11.1686 0 13.5187 0 16.0414V33.9801C0 36.5028 1.33678 38.8314 3.53601 40.1035L19.0815 49.0728C21.2592 50.3449 23.9543 50.3449 26.1535 49.0728L41.699 40.1035C43.8551 38.8314 45.1919 36.5028 45.1919 33.9801Z" fill="url(#paint0_linear_3008_24)"/>
<path d="M25.7224 23.135C25.7224 23.135 24.17 23.1135 24.17 24.5796C24.17 26.0457 25.7224 26.0457 25.7224 26.0457H31.4577C32.0829 26.0457 32.6004 26.5632 32.6004 27.1885V32.6219C32.6004 33.2471 32.1045 33.743 31.4792 33.7646C28.6978 33.8293 21.4749 33.9586 18.7151 33.743C15.5672 33.5059 10.6513 30.9401 10.6513 24.0837C10.6513 19.5559 14.8772 14.9418 18.9307 14.9418H31.6948C32.3201 14.9418 32.816 15.4377 32.8376 16.063L32.8591 16.6667C32.8807 17.3135 32.3632 17.831 31.7164 17.831H19.0385C17.443 17.831 13.217 19.4481 13.217 24.0621C13.217 30.2286 18.3701 31.091 19.0816 31.1773C19.1248 31.1773 19.1679 31.1773 19.2326 31.1773H29.3231C29.3231 31.1773 30.703 31.2204 30.703 29.6896C30.703 28.2881 29.3231 28.1803 29.3231 28.1803H19.3188C19.2757 28.1803 19.211 28.1803 19.1679 28.1803C18.672 28.1156 16.1278 27.5981 16.1278 24.2993C16.1278 21.0005 18.672 20.6124 19.1679 20.5477C19.211 20.5477 19.2757 20.5261 19.3188 20.5261H34.4115C35.0368 20.5261 35.5543 20.0087 35.5543 19.3834V13.4757C35.5543 12.8504 35.0368 12.3329 34.4115 12.3329C30.7893 12.3329 19.7285 12.2898 18.4779 12.2898C14.0148 12.2467 7.6543 17.3998 7.6543 23.825C7.6543 33.8508 14.2304 36.7185 18.4779 36.9772C21.9493 37.1928 31.1558 37.0634 34.3684 36.9987C34.9937 36.9772 35.4896 36.4813 35.4896 35.856V24.364C35.4896 23.7387 34.9721 23.2213 34.3468 23.2213L25.7224 23.135Z" fill="white"/>
<path d="M58.3658 23.2426H57.2015L64.1441 12.4189H66.6237V24.4716H64.1441V15.7178L64.7478 15.8903L59.2067 24.4716H56.4253L50.8841 15.9118L51.4878 15.7393V24.4716H49.0083V12.4189H51.4878L58.3658 23.2426Z" fill="white"/>
<path d="M69.8145 12.4189H72.294V24.4716H69.8145C69.8145 24.4931 69.8145 12.4189 69.8145 12.4189Z" fill="white"/>
<path d="M87.7319 22.0136L86.9557 22.337V12.4189H89.4352V24.4716H86.9557L77.2102 14.9416L77.9864 14.6182V24.45H75.5068V12.4189H77.9864L87.7319 22.0136Z" fill="white"/>
<path d="M92.6479 12.4189H95.1275V24.4716H92.6479C92.6479 24.4931 92.6479 12.4189 92.6479 12.4189Z" fill="white"/>
<path d="M110.565 22.0136L109.789 22.337V12.4189H112.268V24.4716H109.789L100.043 14.9631L100.819 14.6397V24.4716H98.3398V12.4189H100.819L110.565 22.0136Z" fill="white"/>
<path d="M122.057 24.7304C120.936 24.7304 119.922 24.601 119.038 24.3423C118.133 24.0836 117.357 23.6955 116.71 23.178C116.063 22.6605 115.567 22.0137 115.201 21.2375C114.856 20.4613 114.683 19.5773 114.683 18.5639C114.683 17.5506 114.856 16.645 115.222 15.8473C115.589 15.0495 116.106 14.3811 116.796 13.8421C117.464 13.3031 118.284 12.8718 119.211 12.5915C120.138 12.3113 121.195 12.1819 122.337 12.1819C123.696 12.1819 124.86 12.3759 125.83 12.7425C126.8 13.109 127.577 13.648 128.159 14.338C128.719 15.0279 129.043 15.8257 129.129 16.7744H126.736C126.563 16.2785 126.304 15.8473 125.938 15.4807C125.571 15.1142 125.097 14.8339 124.493 14.6183C123.89 14.4027 123.178 14.3164 122.337 14.3164C121.259 14.3164 120.332 14.4889 119.577 14.8339C118.823 15.1789 118.241 15.6748 117.831 16.3C117.421 16.9253 117.227 17.6799 117.227 18.5424C117.227 19.4048 117.4 20.0948 117.745 20.6985C118.09 21.3022 118.629 21.755 119.362 22.0784C120.095 22.4018 121.022 22.5527 122.143 22.5527C123.006 22.5527 123.782 22.4449 124.45 22.2078C125.119 21.9706 125.679 21.6687 126.11 21.2806C126.542 20.8925 126.865 20.4613 127.059 19.9654L128.029 19.5989C127.857 21.1944 127.253 22.4449 126.218 23.3505C125.183 24.2776 123.782 24.7304 122.057 24.7304ZM127.404 24.4717C127.404 24.0836 127.426 23.6523 127.469 23.1349C127.512 22.639 127.577 22.1215 127.663 21.604C127.749 21.0866 127.814 20.6122 127.878 20.181H122.359V18.6071H129.56V24.4717H127.404Z" fill="white"/>
<path d="M52.5229 37.0635L48.8359 28.741H50.7333L53.8812 36.2442H53.2991L56.447 28.741H58.3012L54.6574 37.0635H52.5229Z" fill="white"/>
<path d="M61.2551 33.5922V35.6405H67.6803V37.0635H59.5518V28.741H67.6587V30.164H61.2551V32.2339H66.4944V33.5922H61.2551Z" fill="white"/>
<path d="M77.8786 35.3817L77.3396 35.5973V28.7625H79.0429V37.085H77.3396L70.6125 30.5089L71.1516 30.2933V37.085H69.4482V28.7625H71.1516L77.8786 35.3817Z" fill="white"/>
<path d="M80.2935 28.7625H89.0473V30.1855H80.272V28.7625H80.2935ZM83.8295 29.9914H85.5329V37.0634H83.8295V29.9914Z" fill="white"/>
<path d="M97.9305 33.3981V28.7625H99.6338V33.5921C99.6338 34.1311 99.5475 34.627 99.3966 35.0367C99.2457 35.4464 99.0085 35.7913 98.7282 36.0716C98.4264 36.3519 98.1029 36.5891 97.7148 36.7616C97.3267 36.9341 96.8955 37.0634 96.4427 37.1497C95.99 37.2359 95.4941 37.2575 94.9982 37.2575C94.5023 37.2575 93.9848 37.2144 93.5104 37.1497C93.0361 37.085 92.6049 36.9556 92.2168 36.7616C91.8287 36.5675 91.4837 36.3519 91.2034 36.0716C90.9231 35.7913 90.7075 35.4464 90.535 35.0367C90.3841 34.627 90.2979 34.1527 90.2979 33.5921V28.7625H92.0012V33.3981C92.0012 34.0449 92.1305 34.5408 92.3893 34.8858C92.648 35.2308 92.993 35.4464 93.4458 35.5757C93.8985 35.7051 94.416 35.7698 94.9766 35.7698C95.5372 35.7698 96.0331 35.7051 96.4859 35.5757C96.9171 35.4464 97.2836 35.2308 97.5424 34.8858C97.8011 34.5408 97.9305 34.0449 97.9305 33.3981Z" fill="white"/>
<path d="M101.639 37.0635V28.741H107.288C107.934 28.741 108.495 28.8272 108.969 28.9997C109.444 29.1722 109.81 29.4525 110.091 29.819C110.371 30.1856 110.479 30.6599 110.479 31.242C110.479 31.6301 110.414 31.9751 110.263 32.2339C110.134 32.5141 109.94 32.7298 109.702 32.9022C109.465 33.0747 109.185 33.2041 108.862 33.2903C108.538 33.3766 108.215 33.4413 107.848 33.4628L107.676 33.355C108.279 33.355 108.775 33.4197 109.163 33.506C109.552 33.5922 109.832 33.7647 110.026 34.0019C110.22 34.239 110.306 34.584 110.306 35.0583V37.042H108.603V35.1877C108.603 34.8643 108.538 34.6271 108.43 34.4546C108.323 34.2821 108.129 34.1528 107.827 34.0881C107.546 34.0234 107.137 33.9803 106.576 33.9803H103.342V37.042L101.639 37.0635ZM103.342 32.6651H107.266C107.74 32.6651 108.107 32.5573 108.366 32.3201C108.624 32.0829 108.754 31.7811 108.754 31.3714C108.754 30.9618 108.624 30.703 108.366 30.509C108.107 30.3149 107.74 30.2071 107.266 30.2071H103.342V32.6651Z" fill="white"/>
<path d="M113.972 33.5922V35.6405H120.397V37.0635H112.269V28.741H120.375V30.164H113.972V32.2339H119.211V33.5922H113.972Z" fill="white"/>
<path d="M121.583 34.2605H123.308C123.351 34.5623 123.48 34.8211 123.717 35.0582C123.954 35.2954 124.256 35.4679 124.644 35.6188C125.032 35.7482 125.464 35.8129 125.938 35.8129C126.369 35.8129 126.736 35.7697 127.016 35.6619C127.296 35.5541 127.512 35.4248 127.641 35.2523C127.771 35.0798 127.857 34.8642 127.857 34.627C127.857 34.3898 127.771 34.2173 127.598 34.088C127.426 33.9586 127.167 33.8508 126.779 33.7861C126.412 33.6999 125.916 33.6136 125.334 33.5274C124.86 33.4627 124.429 33.3549 123.997 33.2471C123.566 33.1393 123.2 32.9668 122.876 32.7728C122.553 32.5787 122.294 32.3415 122.122 32.0397C121.949 31.7594 121.841 31.4144 121.841 31.0263C121.841 30.5304 121.992 30.0992 122.251 29.7327C122.531 29.3661 122.941 29.0858 123.502 28.8702C124.041 28.6546 124.731 28.5684 125.528 28.5684C126.736 28.5684 127.641 28.8271 128.31 29.3446C128.957 29.862 129.28 30.552 129.258 31.4575H127.577C127.533 30.9616 127.339 30.5951 126.93 30.3579C126.542 30.1423 126.046 30.0129 125.464 30.0129C124.925 30.0129 124.472 30.0992 124.105 30.2501C123.739 30.4226 123.566 30.7029 123.566 31.091C123.566 31.2419 123.609 31.3713 123.696 31.5007C123.782 31.6085 123.933 31.7163 124.127 31.8025C124.342 31.8888 124.601 31.975 124.968 32.0397C125.313 32.1259 125.765 32.1906 126.283 32.2769C126.779 32.3415 127.21 32.4278 127.62 32.5571C128.029 32.6865 128.353 32.8159 128.655 33.0099C128.935 33.204 129.172 33.4196 129.323 33.6999C129.474 33.9802 129.56 34.3252 129.56 34.7348C129.56 35.2523 129.431 35.6835 129.172 36.05C128.913 36.4166 128.504 36.7184 127.965 36.9125C127.426 37.1281 126.714 37.2143 125.852 37.2143C125.226 37.2143 124.687 37.1496 124.213 37.0203C123.739 36.8909 123.329 36.7184 122.984 36.4813C122.639 36.2441 122.359 36.0069 122.143 35.7482C121.928 35.4894 121.777 35.2092 121.69 34.9504C121.604 34.6917 121.561 34.4976 121.583 34.2605Z" fill="white"/>
</g>
<defs>
<linearGradient id="paint0_linear_3008_24" x1="22.5981" y1="50.0037" x2="22.5981" y2="0.000501446" gradientUnits="userSpaceOnUse">
<stop stop-color="#8A690E"/>
<stop offset="1" stop-color="#D09B18"/>
</linearGradient>
<clipPath id="clip0_3008_24">
<rect width="129.56" height="50" fill="white"/>
</clipPath>
</defs>
</svg>
