<?xml version="1.0" encoding="utf-8"?>
<!-- Generator: Adobe Illustrator 22.0.1, SVG Export Plug-In . SVG Version: 6.00 Build 0)  -->
<svg version="1.1"
	 id="WDR_x5F_Logo" inkscape:version="0.91 r13725" sodipodi:docname="wdr_logo.svg" xmlns:cc="http://creativecommons.org/ns#" xmlns:dc="http://purl.org/dc/elements/1.1/" xmlns:inkscape="http://www.inkscape.org/namespaces/inkscape" xmlns:rdf="http://www.w3.org/1999/02/22-rdf-syntax-ns#" xmlns:sodipodi="http://sodipodi.sourceforge.net/DTD/sodipodi-0.dtd" xmlns:svg="http://www.w3.org/2000/svg"
	 xmlns="http://www.w3.org/2000/svg" xmlns:xlink="http://www.w3.org/1999/xlink" x="0px" y="0px" viewBox="0 0 117.2 34.1"
	 style="enable-background:new 0 0 117.2 34.1;" xml:space="preserve">
<style type="text/css">
	.st0{fill:#FFFFFF;}
</style>
<path id="path3" inkscape:connector-curvature="0" class="st0" d="M104.5,8.1l2.6-1v6l5.3-1.9v-8l-8,2.9v2H104.5z M109.3,0
	c-4.4,0-7.9,3.6-7.9,8s3.6,8,7.9,8c4.4,0,7.9-3.6,7.9-8S113.7,0,109.3,0z M109.3,14.8c-3.7,0-6.8-3-6.8-6.8s3-6.8,6.8-6.8
	c3.7,0,6.8,3,6.8,6.8S113,14.8,109.3,14.8z M91.5,21.1L91.5,21.1c2.9-1.1,6-3.6,6-8.6c0-6.2-4.5-9.4-12.4-9.4H71.7v10.7h-0.1
	C70,7.3,64.5,3.1,54.5,3.1H35.6l-2.9,12.6c-0.6,2.6-1.1,5.9-1.1,5.9h-0.1c0,0-0.7-3.7-1.3-6.3L27.7,3H17.3l-2.5,12.3
	c-0.6,2.6-1.3,6.3-1.3,6.3h-0.1c0,0-0.5-3.3-1.1-5.9L9.4,3.1H0l8.3,31h9.4l4.7-19.9h0.1l4.7,19.9h9.3l6.9-25.7h0.1v25.7h10.6
	c10.1,0,15.7-4.6,17.4-11.3h0.1v11.3h8.6V23.2h0.7c1,0,3.4-0.1,4.8,2.1l5.3,8.8h9.2l-4.8-8C93.8,23.3,92.5,21.8,91.5,21.1L91.5,21.1
	z M55,27h-2.6V10.1h2.4c5.7,0,8.2,2.5,8.2,8.3C63,24,60.4,27,55,27L55,27z M85,16.5h-4.7V9.6h4.4c2.9,0,4.1,1.2,4.1,3.5
	C88.8,15.2,87.6,16.5,85,16.5z"/>
</svg>
